<svg
  version="1.1"
  baseProfile="full"
  width="100%" height="100%"
  xmlns="http://www.w3.org/2000/svg"
  viewBox="0 0 1400 800"
>

<!-- 椭圆方 -->
  <rect x="1300" y="600" rx="40" ry="40" width="200" height="200" stroke="rgb(19,84,248)" fill="rgb(19,84,248)">
    <animateMotion path="M 0 0 L 40 40 Z" dur="5s" repeatCount="indefinite"/>
    <!-- <animateTransform attributeType="XML" attributeName="transform" begin="0s" dur="35s" type="rotate" from="0 1450 550" to="360 1450 550" repeatCount="indefinite" /> -->
  </rect>

<!-- 半圆 -->
  <path d="M 100 350 A 150 150 0 1 1 400 350 Q400 370 380 370 L 250 370 L 120 370 Q100 370 100 350" stroke="rgb(19,84,248)" fill="rgb(19,84,248)">
    <animateMotion path="M 800 -200 L 800 -300 L 800 -200" dur="20s" begin="0s" repeatCount="indefinite" />
    <animateTransform attributeType="XML" attributeName="transform" begin="0s" dur="30s" type="rotate" values="0 210 530 ; -30 210 530 ; 0 210 530" keyTimes="0 ; 0.5 ; 1" repeatCount="indefinite" />
  </path>

<!-- 圆1 -->
  <circle cx="50" cy="30" r="100" stroke="#1354F8" fill="#1354F8">
    <animateMotion path="M 0 0 L 40 20 Z" dur="5s" repeatCount="indefinite"/>
  </circle>

<!-- 圆2 -->
  <circle cx="200" cy="100" r="30" stroke="#1a73e8" fill="#1a73e8">
    <animateMotion path="M 0 0 L -20 40 Z" dur="5s" repeatCount="indefinite" />
  </circle>

<!-- 三角形 -->
  <path d="M 165 580 L 270 580 Q275 578 270 570 L 223 483 Q220 480 217 483 L 165 570 Q160 578 165 580" stroke="rgb(19,84,248)" fill="rgb(19,84,248)">
    <animateTransform attributeType="XML" attributeName="transform" begin="0s" dur="35s" type="rotate" from="0 110 530" to="360 110 530" repeatCount="indefinite" />
  </path>


<!-- 条 -->
  <path d="M 100 350 A 40 40 0 1 1 180 350 L 180 430 A 40 40 0 1 1 100 430 Z" stroke="rgb(19,84,248)" fill="rgb(19,84,248)">
    <animateMotion path="M 140 390 L 180 360 L 140 390" dur="20s" begin="0s" repeatCount="indefinite" />
    <animateTransform attributeType="XML" attributeName="transform" begin="0s" dur="30s" type="rotate" values="0 140 390; -60 140 390; 0 140 390" keyTimes="0 ; 0.5 ; 1" repeatCount="indefinite" />
  </path>

<!-- 半圆不圆 -->
  <rect x="1000" y="800" rx="40" ry="40" width="100" height="100" stroke="rgb(19,84,248)" fill="rgb(19,84,248)">
    <animateTransform attributeType="XML" attributeName="transform" begin="0s" dur="25s" type="rotate" from="-50 300 150" to="0 150 150" repeatCount="indefinite" />
  </rect>
</svg>
